# xmcd
#
# Track frame offsets: 
#        150
#        13747
#        23179
#        41422
#
# Disc length: 699 seconds
#
# Revision: 0
# Processed by: cddbd v1.5.2PL0 Copyright (c) Steve Scherf et al.
# Submitted via: ExactAudioCopy v0.95a4
#
DISCID=2602b904
DTITLE=Barritz Boys - Whatever happened to the longboards?
DYEAR=1900
DGENRE=Surf
TTITLE0=Whatever happened to the longboards?
TTITLE1=Sexwax
TTITLE2=Young gun: Loose Cannon
TTITLE3=Golesh (we think)
EXTD=
EXTT0=
EXTT1=
EXTT2=
EXTT3=
PLAYORDER=
